<svg xmlns="http://www.w3.org/2000/svg" xmlns:xlink="http://www.w3.org/1999/xlink" width="1236" zoomAndPan="magnify" viewBox="0 0 926.88 327.749992" height="437" preserveAspectRatio="xMidYMid meet" version="1.0"><defs><g/></defs><g fill="#072439" fill-opacity="1"><g transform="translate(44.194228, 190.083857)"><g><path d="M 9.035156 -90.347656 L 34.589844 -90.347656 L 34.589844 0 L 9.035156 0 Z M 9.035156 -90.347656 "/></g></g></g><g fill="#072439" fill-opacity="1"><g transform="translate(100.983418, 190.083857)"><g><path d="M 53.433594 -71.117188 C 62.125 -71.117188 69.117188 -68.535156 74.40625 -63.371094 C 79.699219 -58.210938 82.34375 -50.421875 82.34375 -40.011719 L 82.34375 0 L 57.820312 0 L 57.820312 -36.011719 C 57.820312 -45.5625 53.992188 -50.335938 46.335938 -50.335938 C 42.117188 -50.335938 38.742188 -48.960938 36.203125 -46.207031 C 33.664062 -43.453125 32.394531 -39.324219 32.394531 -33.816406 L 32.394531 0 L 7.875 0 L 7.875 -69.953125 L 31.234375 -69.953125 L 31.234375 -62.339844 C 33.988281 -65.179688 37.257812 -67.351562 41.042969 -68.859375 C 44.828125 -70.363281 48.960938 -71.117188 53.433594 -71.117188 Z M 53.433594 -71.117188 "/></g></g></g><g fill="#072439" fill-opacity="1"><g transform="translate(203.848538, 190.083857)"><g><path d="M 53.433594 -71.117188 C 62.125 -71.117188 69.117188 -68.535156 74.40625 -63.371094 C 79.699219 -58.210938 82.34375 -50.421875 82.34375 -40.011719 L 82.34375 0 L 57.820312 0 L 57.820312 -36.011719 C 57.820312 -45.5625 53.992188 -50.335938 46.335938 -50.335938 C 42.117188 -50.335938 38.742188 -48.960938 36.203125 -46.207031 C 33.664062 -43.453125 32.394531 -39.324219 32.394531 -33.816406 L 32.394531 0 L 7.875 0 L 7.875 -69.953125 L 31.234375 -69.953125 L 31.234375 -62.339844 C 33.988281 -65.179688 37.257812 -67.351562 41.042969 -68.859375 C 44.828125 -70.363281 48.960938 -71.117188 53.433594 -71.117188 Z M 53.433594 -71.117188 "/></g></g></g><g fill="#072439" fill-opacity="1"><g transform="translate(306.713641, 190.083857)"><g><path d="M 42.980469 1.160156 C 35.492188 1.160156 28.738281 -0.386719 22.714844 -3.484375 C 16.691406 -6.582031 11.980469 -10.882812 8.582031 -16.390625 C 5.183594 -21.898438 3.484375 -28.136719 3.484375 -35.105469 C 3.484375 -41.988281 5.183594 -48.183594 8.582031 -53.691406 C 11.980469 -59.199219 16.671875 -63.480469 22.652344 -66.535156 C 28.632812 -69.589844 35.40625 -71.117188 42.980469 -71.117188 C 50.550781 -71.117188 57.347656 -69.589844 63.371094 -66.535156 C 69.394531 -63.480469 74.085938 -59.21875 77.441406 -53.757812 C 80.796875 -48.292969 82.472656 -42.074219 82.472656 -35.105469 C 82.472656 -28.136719 80.796875 -21.898438 77.441406 -16.390625 C 74.085938 -10.882812 69.394531 -6.582031 63.371094 -3.484375 C 57.347656 -0.386719 50.550781 1.160156 42.980469 1.160156 Z M 42.980469 -18.328125 C 47.28125 -18.328125 50.808594 -19.8125 53.5625 -22.78125 C 56.316406 -25.75 57.691406 -29.859375 57.691406 -35.105469 C 57.691406 -40.269531 56.316406 -44.3125 53.5625 -47.238281 C 50.808594 -50.164062 47.28125 -51.628906 42.980469 -51.628906 C 38.675781 -51.628906 35.148438 -50.164062 32.394531 -47.238281 C 29.640625 -44.3125 28.265625 -40.269531 28.265625 -35.105469 C 28.265625 -29.859375 29.640625 -25.75 32.394531 -22.78125 C 35.148438 -19.8125 38.675781 -18.328125 42.980469 -18.328125 Z M 42.980469 -18.328125 "/></g></g></g><g fill="#072439" fill-opacity="1"><g transform="translate(405.706852, 190.083857)"><g><path d="M 81.570312 -69.953125 L 52.660156 0 L 27.363281 0 L -1.417969 -69.953125 L 23.75 -69.953125 L 40.527344 -27.234375 L 58.210938 -69.953125 Z M 81.570312 -69.953125 "/></g></g></g><g fill="#072439" fill-opacity="1"><g transform="translate(498.763099, 190.083857)"><g><path d="M 37.6875 -71.117188 C 49.304688 -71.117188 58.167969 -68.46875 64.277344 -63.179688 C 70.386719 -57.886719 73.4375 -49.777344 73.4375 -38.847656 L 73.4375 0 L 50.59375 0 L 50.59375 -9.035156 C 47.066406 -2.238281 40.183594 1.160156 29.945312 1.160156 C 24.523438 1.160156 19.832031 0.214844 15.875 -1.679688 C 11.917969 -3.570312 8.925781 -6.128906 6.90625 -9.355469 C 4.882812 -12.585938 3.871094 -16.261719 3.871094 -20.394531 C 3.871094 -27.019531 6.410156 -32.160156 11.488281 -35.816406 C 16.5625 -39.472656 24.394531 -41.300781 34.976562 -41.300781 L 48.917969 -41.300781 C 48.488281 -48.703125 43.539062 -52.402344 34.074219 -52.402344 C 30.71875 -52.402344 27.320312 -51.863281 23.878906 -50.789062 C 20.4375 -49.710938 17.511719 -48.226562 15.101562 -46.335938 L 6.839844 -62.984375 C 10.710938 -65.566406 15.421875 -67.566406 20.972656 -68.988281 C 26.523438 -70.40625 32.09375 -71.117188 37.6875 -71.117188 Z M 36.785156 -14.328125 C 39.625 -14.328125 42.117188 -15.015625 44.269531 -16.390625 C 46.421875 -17.769531 47.96875 -19.789062 48.917969 -22.457031 L 48.917969 -28.523438 L 38.332031 -28.523438 C 31.191406 -28.523438 27.621094 -26.15625 27.621094 -21.425781 C 27.621094 -19.273438 28.4375 -17.554688 30.074219 -16.261719 C 31.707031 -14.972656 33.945312 -14.328125 36.785156 -14.328125 Z M 36.785156 -14.328125 "/></g></g></g><g fill="#072439" fill-opacity="1"><g transform="translate(592.851874, 190.083857)"><g><path d="M 56.144531 -2.839844 C 54.078125 -1.546875 51.5625 -0.558594 48.59375 0.128906 C 45.625 0.816406 42.464844 1.160156 39.109375 1.160156 C 29.988281 1.160156 22.972656 -1.074219 18.070312 -5.550781 C 13.164062 -10.023438 10.710938 -16.691406 10.710938 -25.554688 L 10.710938 -49.046875 L 0.515625 -49.046875 L 0.515625 -67.375 L 10.710938 -67.375 L 10.710938 -85.570312 L 35.234375 -85.570312 L 35.234375 -67.375 L 51.238281 -67.375 L 51.238281 -49.046875 L 35.234375 -49.046875 L 35.234375 -25.8125 C 35.234375 -23.316406 35.902344 -21.359375 37.234375 -19.941406 C 38.570312 -18.519531 40.355469 -17.8125 42.59375 -17.8125 C 45.433594 -17.8125 47.925781 -18.542969 50.078125 -20.003906 Z M 56.144531 -2.839844 "/></g></g></g><g fill="#072439" fill-opacity="1"><g transform="translate(663.579977, 190.083857)"><g><path d="M 79.375 -34.847656 C 79.375 -34.675781 79.246094 -32.652344 78.988281 -28.78125 L 28.136719 -28.78125 C 29.167969 -25.167969 31.167969 -22.394531 34.136719 -20.457031 C 37.105469 -18.519531 40.828125 -17.554688 45.300781 -17.554688 C 48.660156 -17.554688 51.5625 -18.027344 54.015625 -18.972656 C 56.46875 -19.917969 58.941406 -21.46875 61.4375 -23.621094 L 74.34375 -10.195312 C 67.546875 -2.625 57.605469 1.160156 44.527344 1.160156 C 36.355469 1.160156 29.167969 -0.386719 22.972656 -3.484375 C 16.777344 -6.582031 11.980469 -10.882812 8.582031 -16.390625 C 5.183594 -21.898438 3.484375 -28.136719 3.484375 -35.105469 C 3.484375 -41.988281 5.140625 -48.164062 8.453125 -53.628906 C 11.765625 -59.089844 16.347656 -63.371094 22.199219 -66.46875 C 28.050781 -69.566406 34.632812 -71.117188 41.945312 -71.117188 C 48.917969 -71.117188 55.242188 -69.675781 60.917969 -66.792969 C 66.597656 -63.910156 71.09375 -59.738281 74.40625 -54.273438 C 77.71875 -48.808594 79.375 -42.335938 79.375 -34.847656 Z M 42.074219 -53.691406 C 38.289062 -53.691406 35.128906 -52.617188 32.589844 -50.464844 C 30.050781 -48.3125 28.4375 -45.390625 27.75 -41.6875 L 56.402344 -41.6875 C 55.714844 -45.390625 54.101562 -48.3125 51.5625 -50.464844 C 49.023438 -52.617188 45.863281 -53.691406 42.074219 -53.691406 Z M 42.074219 -53.691406 "/></g></g></g><g fill="#43addc" fill-opacity="1"><g transform="translate(143.50628, 278.814523)"><g/></g></g><g fill="#43addc" fill-opacity="1"><g transform="translate(177.252005, 278.814523)"><g/></g></g><g fill="#43addc" fill-opacity="1"><g transform="translate(211.010429, 278.814523)"><g><path d="M 12.972656 0.574219 C 10.644531 0.574219 8.386719 0.289062 6.199219 -0.289062 C 4.007812 -0.863281 2.230469 -1.628906 0.863281 -2.585938 L 3.53125 -8.578125 C 4.816406 -7.730469 6.308594 -7.046875 8.003906 -6.527344 C 9.703125 -6.007812 11.371094 -5.746094 13.011719 -5.746094 C 16.132812 -5.746094 17.691406 -6.527344 17.691406 -8.085938 C 17.691406 -8.90625 17.25 -9.515625 16.359375 -9.914062 C 15.46875 -10.3125 14.039062 -10.726562 12.070312 -11.164062 C 9.90625 -11.632812 8.101562 -12.128906 6.648438 -12.664062 C 5.199219 -13.199219 3.953125 -14.054688 2.914062 -15.230469 C 1.875 -16.40625 1.355469 -17.992188 1.355469 -19.992188 C 1.355469 -21.742188 1.832031 -23.324219 2.792969 -24.734375 C 3.75 -26.140625 5.179688 -27.257812 7.082031 -28.078125 C 8.984375 -28.898438 11.316406 -29.308594 14.082031 -29.308594 C 15.96875 -29.308594 17.828125 -29.097656 19.664062 -28.675781 C 21.496094 -28.25 23.113281 -27.628906 24.507812 -26.804688 L 22.003906 -20.773438 C 19.265625 -22.25 16.613281 -22.988281 14.039062 -22.988281 C 12.425781 -22.988281 11.246094 -22.75 10.507812 -22.269531 C 9.769531 -21.792969 9.402344 -21.167969 9.402344 -20.402344 C 9.402344 -19.636719 9.839844 -19.0625 10.714844 -18.679688 C 11.589844 -18.292969 13 -17.898438 14.941406 -17.488281 C 17.132812 -17.023438 18.945312 -16.523438 20.382812 -15.988281 C 21.820312 -15.457031 23.0625 -14.605469 24.117188 -13.445312 C 25.171875 -12.28125 25.699219 -10.699219 25.699219 -8.703125 C 25.699219 -6.980469 25.21875 -5.417969 24.261719 -4.023438 C 23.304688 -2.628906 21.867188 -1.511719 19.949219 -0.675781 C 18.035156 0.15625 15.707031 0.574219 12.972656 0.574219 Z M 12.972656 0.574219 "/></g></g></g><g fill="#43addc" fill-opacity="1"><g transform="translate(259.370223, 278.814523)"><g><path d="M 17.363281 0.574219 C 14.328125 0.574219 11.597656 -0.0703125 9.175781 -1.355469 C 6.753906 -2.640625 4.851562 -4.417969 3.46875 -6.691406 C 2.085938 -8.960938 1.394531 -11.523438 1.394531 -14.367188 C 1.394531 -17.214844 2.085938 -19.773438 3.46875 -22.042969 C 4.851562 -24.316406 6.753906 -26.09375 9.175781 -27.378906 C 11.597656 -28.667969 14.328125 -29.308594 17.363281 -29.308594 C 20.402344 -29.308594 23.132812 -28.667969 25.554688 -27.378906 C 27.976562 -26.09375 29.878906 -24.316406 31.261719 -22.042969 C 32.640625 -19.773438 33.332031 -17.214844 33.332031 -14.367188 C 33.332031 -11.523438 32.640625 -8.960938 31.261719 -6.691406 C 29.878906 -4.417969 27.976562 -2.640625 25.554688 -1.355469 C 23.132812 -0.0703125 20.402344 0.574219 17.363281 0.574219 Z M 17.363281 -6.15625 C 18.816406 -6.15625 20.128906 -6.5 21.304688 -7.183594 C 22.480469 -7.867188 23.414062 -8.832031 24.097656 -10.078125 C 24.78125 -11.324219 25.121094 -12.753906 25.121094 -14.367188 C 25.121094 -15.980469 24.78125 -17.414062 24.097656 -18.65625 C 23.414062 -19.902344 22.480469 -20.867188 21.304688 -21.550781 C 20.128906 -22.234375 18.816406 -22.578125 17.363281 -22.578125 C 15.914062 -22.578125 14.601562 -22.234375 13.421875 -21.550781 C 12.246094 -20.867188 11.316406 -19.902344 10.632812 -18.65625 C 9.949219 -17.414062 9.605469 -15.980469 9.605469 -14.367188 C 9.605469 -12.753906 9.949219 -11.324219 10.632812 -10.078125 C 11.316406 -8.832031 12.246094 -7.867188 13.421875 -7.183594 C 14.601562 -6.5 15.914062 -6.15625 17.363281 -6.15625 Z M 17.363281 -6.15625 "/></g></g></g><g fill="#43addc" fill-opacity="1"><g transform="translate(315.899118, 278.814523)"><g><path d="M 2.875 -28.734375 L 11 -28.734375 L 11 -6.445312 L 24.710938 -6.445312 L 24.710938 0 L 2.875 0 Z M 2.875 -28.734375 "/></g></g></g><g fill="#43addc" fill-opacity="1"><g transform="translate(362.740028, 278.814523)"><g><path d="M 16.132812 0.574219 C 11.863281 0.574219 8.546875 -0.589844 6.179688 -2.914062 C 3.8125 -5.242188 2.628906 -8.539062 2.628906 -12.808594 L 2.628906 -28.734375 L 10.753906 -28.734375 L 10.753906 -13.054688 C 10.753906 -8.457031 12.574219 -6.15625 16.214844 -6.15625 C 19.828125 -6.15625 21.632812 -8.457031 21.632812 -13.054688 L 21.632812 -28.734375 L 29.636719 -28.734375 L 29.636719 -12.808594 C 29.636719 -8.539062 28.453125 -5.242188 26.085938 -2.914062 C 23.71875 -0.589844 20.402344 0.574219 16.132812 0.574219 Z M 16.132812 0.574219 "/></g></g></g><g fill="#43addc" fill-opacity="1"><g transform="translate(416.805874, 278.814523)"><g><path d="M 8.988281 -22.289062 L 0.164062 -22.289062 L 0.164062 -28.734375 L 25.902344 -28.734375 L 25.902344 -22.289062 L 17.117188 -22.289062 L 17.117188 0 L 8.988281 0 Z M 8.988281 -22.289062 "/></g></g></g><g fill="#43addc" fill-opacity="1"><g transform="translate(464.673057, 278.814523)"><g><path d="M 2.875 -28.734375 L 11 -28.734375 L 11 0 L 2.875 0 Z M 2.875 -28.734375 "/></g></g></g><g fill="#43addc" fill-opacity="1"><g transform="translate(500.389238, 278.814523)"><g><path d="M 17.363281 0.574219 C 14.328125 0.574219 11.597656 -0.0703125 9.175781 -1.355469 C 6.753906 -2.640625 4.851562 -4.417969 3.46875 -6.691406 C 2.085938 -8.960938 1.394531 -11.523438 1.394531 -14.367188 C 1.394531 -17.214844 2.085938 -19.773438 3.46875 -22.042969 C 4.851562 -24.316406 6.753906 -26.09375 9.175781 -27.378906 C 11.597656 -28.667969 14.328125 -29.308594 17.363281 -29.308594 C 20.402344 -29.308594 23.132812 -28.667969 25.554688 -27.378906 C 27.976562 -26.09375 29.878906 -24.316406 31.261719 -22.042969 C 32.640625 -19.773438 33.332031 -17.214844 33.332031 -14.367188 C 33.332031 -11.523438 32.640625 -8.960938 31.261719 -6.691406 C 29.878906 -4.417969 27.976562 -2.640625 25.554688 -1.355469 C 23.132812 -0.0703125 20.402344 0.574219 17.363281 0.574219 Z M 17.363281 -6.15625 C 18.816406 -6.15625 20.128906 -6.5 21.304688 -7.183594 C 22.480469 -7.867188 23.414062 -8.832031 24.097656 -10.078125 C 24.78125 -11.324219 25.121094 -12.753906 25.121094 -14.367188 C 25.121094 -15.980469 24.78125 -17.414062 24.097656 -18.65625 C 23.414062 -19.902344 22.480469 -20.867188 21.304688 -21.550781 C 20.128906 -22.234375 18.816406 -22.578125 17.363281 -22.578125 C 15.914062 -22.578125 14.601562 -22.234375 13.421875 -21.550781 C 12.246094 -20.867188 11.316406 -19.902344 10.632812 -18.65625 C 9.949219 -17.414062 9.605469 -15.980469 9.605469 -14.367188 C 9.605469 -12.753906 9.949219 -11.324219 10.632812 -10.078125 C 11.316406 -8.832031 12.246094 -7.867188 13.421875 -7.183594 C 14.601562 -6.5 15.914062 -6.15625 17.363281 -6.15625 Z M 17.363281 -6.15625 "/></g></g></g><g fill="#43addc" fill-opacity="1"><g transform="translate(556.918117, 278.814523)"><g><path d="M 30.214844 -28.734375 L 30.214844 0 L 23.523438 0 L 10.835938 -15.3125 L 10.835938 0 L 2.875 0 L 2.875 -28.734375 L 9.566406 -28.734375 L 22.25 -13.421875 L 22.25 -28.734375 Z M 30.214844 -28.734375 "/></g></g></g><g fill="#43addc" fill-opacity="1"><g transform="translate(611.804985, 278.814523)"><g><path d="M 12.972656 0.574219 C 10.644531 0.574219 8.386719 0.289062 6.199219 -0.289062 C 4.007812 -0.863281 2.230469 -1.628906 0.863281 -2.585938 L 3.53125 -8.578125 C 4.816406 -7.730469 6.308594 -7.046875 8.003906 -6.527344 C 9.703125 -6.007812 11.371094 -5.746094 13.011719 -5.746094 C 16.132812 -5.746094 17.691406 -6.527344 17.691406 -8.085938 C 17.691406 -8.90625 17.25 -9.515625 16.359375 -9.914062 C 15.46875 -10.3125 14.039062 -10.726562 12.070312 -11.164062 C 9.90625 -11.632812 8.101562 -12.128906 6.648438 -12.664062 C 5.199219 -13.199219 3.953125 -14.054688 2.914062 -15.230469 C 1.875 -16.40625 1.355469 -17.992188 1.355469 -19.992188 C 1.355469 -21.742188 1.832031 -23.324219 2.792969 -24.734375 C 3.75 -26.140625 5.179688 -27.257812 7.082031 -28.078125 C 8.984375 -28.898438 11.316406 -29.308594 14.082031 -29.308594 C 15.96875 -29.308594 17.828125 -29.097656 19.664062 -28.675781 C 21.496094 -28.25 23.113281 -27.628906 24.507812 -26.804688 L 22.003906 -20.773438 C 19.265625 -22.25 16.613281 -22.988281 14.039062 -22.988281 C 12.425781 -22.988281 11.246094 -22.75 10.507812 -22.269531 C 9.769531 -21.792969 9.402344 -21.167969 9.402344 -20.402344 C 9.402344 -19.636719 9.839844 -19.0625 10.714844 -18.679688 C 11.589844 -18.292969 13 -17.898438 14.941406 -17.488281 C 17.132812 -17.023438 18.945312 -16.523438 20.382812 -15.988281 C 21.820312 -15.457031 23.0625 -14.605469 24.117188 -13.445312 C 25.171875 -12.28125 25.699219 -10.699219 25.699219 -8.703125 C 25.699219 -6.980469 25.21875 -5.417969 24.261719 -4.023438 C 23.304688 -2.628906 21.867188 -1.511719 19.949219 -0.675781 C 18.035156 0.15625 15.707031 0.574219 12.972656 0.574219 Z M 12.972656 0.574219 "/></g></g></g><g fill="#43addc" fill-opacity="1"><g transform="translate(746.05402, 203.86282)"><g><path d="M 84.035156 0 L 60.234375 -35.617188 L 36.765625 0 L -0.328125 0 L 41.523438 -58.101562 L 1.476562 -114.890625 L 38.078125 -114.890625 L 61.054688 -81.738281 L 83.707031 -114.890625 L 118.828125 -114.890625 L 78.78125 -59.414062 L 121.457031 0 Z M 84.035156 0 "/></g></g></g></svg>